<svg xmlns="http://www.w3.org/2000/svg" viewBox="0 0 148 44" width="148" height="44" role="img" aria-label="LinkedIn">
  <defs>
    <clipPath id="p"><rect x="0.5" y="0.5" width="147" height="43" rx="21.5"/></clipPath>
    <linearGradient id="s" x1="0" y1="0" x2="1" y2="0">
      <stop offset="0" stop-color="#58a6ff" stop-opacity="0"/>
      <stop offset="0.5" stop-color="#58a6ff" stop-opacity="0.28"/>
      <stop offset="1" stop-color="#58a6ff" stop-opacity="0"/>
    </linearGradient>
  </defs>
  <rect x="0.5" y="0.5" width="147" height="43" rx="21.5" fill="#0f2a4a" stroke="#1f4e8c"/>
  <g clip-path="url(#p)"><rect x="-70" y="0" width="60" height="44" fill="url(#s)"><animate attributeName="x" values="-70;158;158" keyTimes="0;0.4;1" dur="5s" begin="1.2s" repeatCount="indefinite"/></rect></g>
  <g transform="translate(18,13) scale(0.75)" fill="none" stroke="#58a6ff" stroke-width="2" stroke-linecap="round" stroke-linejoin="round"><rect x="3" y="3" width="18" height="18" rx="3"/><circle cx="8" cy="8.2" r="1.2" fill="#58a6ff" stroke="none"/><rect x="7" y="10.5" width="2" height="6.5" fill="#58a6ff" stroke="none"/><path d="M11 10.5h2v1c.5-.8 1.3-1.2 2.3-1.2 1.8 0 2.7 1.1 2.7 3V17h-2v-3.3c0-.9-.4-1.4-1.2-1.4-.9 0-1.6.6-1.6 1.6V17h-2z" fill="#58a6ff" stroke="none"/></g>
  <text x="44" y="27.5" font-family="'Segoe UI',system-ui,-apple-system,'Helvetica Neue',Arial,sans-serif" font-size="15" font-weight="600" fill="#e6edf3">LinkedIn</text>
</svg>
